<svg xmlns="http://www.w3.org/2000/svg" viewBox="0 0 55.08 70.7"><defs><style>.cls-1{fill:#335c69;}</style></defs><title>bass</title><g id="Layer_2" data-name="Layer 2"><g id="Layer_1-2" data-name="Layer 1"><path class="cls-1" d="M34.84,47c-5.7,10.08-16.91,19.64-28,23.71l-1-1.93c1.7-.9,3.42-1.68,5-2.66C23.4,58.4,32,47.75,35.13,33.18c1.7-8,.8-15.63-4.26-22.37C25.49,3.68,17.72,2,9.76,5.16A8.35,8.35,0,0,0,4.86,9.61c.72.11,1.38.23,2,.33a6.45,6.45,0,0,1,5.67,6.27,6.37,6.37,0,0,1-5.4,6.33C4,23,.77,21.21.21,18.14a14.08,14.08,0,0,1,.34-6.32c2-6.89,7.13-10.29,14-11.5,12.14-2.17,24.36,7,26.08,21.22C41.72,30.71,39.32,39.07,34.84,47Z"/><path class="cls-1" d="M55.08,31.25a5,5,0,1,1-4.92-5.05A5,5,0,0,1,55.08,31.25Z"/><path class="cls-1" d="M55.08,13.83a5,5,0,1,1-5-4.93A5,5,0,0,1,55.08,13.83Z"/></g></g></svg>