<svg xmlns="http://www.w3.org/2000/svg" viewBox="0 0 196 131"><defs><style>.cls-1,.cls-2,.spin{fill:none;}.cls-1,.cls-2,.cls-3,.spin{stroke:#000;}.cls-1,.cls-2,.cls-3,.cls-4,.spin{stroke-miterlimit:10;}.cls-1{stroke-width:4px;}.cls-2,.cls-3{stroke-width:5px;}.cls-4{stroke:#fff;stroke-width:2px;}</style></defs><g id="Layer_2" data-name="Layer 2"><g id="Layer_3" data-name="Layer 3"><path class="spin" d="M61.5,37.72l-4.06,3.64a16.52,16.52,0,0,1-1.81,4.06v5.45H50.18a16.67,16.67,0,0,1-5.84,2.23l-4.06,3.64-3.64-4.06a16.51,16.51,0,0,1-4.06-1.81H27.13V45.42a16.67,16.67,0,0,1-2.23-5.84l-3.64-4.06,4.06-3.64a16.52,16.52,0,0,1,1.81-4.06V22.37h5.45a16.67,16.67,0,0,1,5.84-2.23l4.06-3.64,3.64,4.06a16.51,16.51,0,0,1,4.06,1.81h5.45v5.45a16.67,16.67,0,0,1,2.23,5.84Z"/><rect class="cls-2" x="2.5" y="2.5" width="191" height="126"/><polygon class="cls-3" points="80.4 62 128.8 116 32 116 80.4 62"/><polygon class="cls-4" points="132.6 45.5 180 120 85.2 120 132.6 45.5"/></g></g></svg>