<svg xmlns="http://www.w3.org/2000/svg" viewBox="0 0 45.89 83.3"><defs><style>.cls-1{fill:#335c69;}.cls-1,.cls-2,.cls-3{stroke:#335c69;stroke-miterlimit:10;stroke-width:1.72px;}.cls-2,.cls-3{fill:#fff;}.cls-3{fill-rule:evenodd;}</style></defs><title>hihat</title><g id="Layer_2" data-name="Layer 2"><g id="Layer_1-2" data-name="Layer 1"><path class="cls-1" d="M29.11,62.22H30a.81.81,0,0,1,.81.81V84.56a0,0,0,0,1,0,0H28.31a0,0,0,0,1,0,0V63a.81.81,0,0,1,.81-.81Z" transform="translate(99.19 110.93) rotate(140.26)"/><path class="cls-1" d="M14.91,62.22H17.4a0,0,0,0,1,0,0V83.75a.81.81,0,0,1-.81.81h-.87a.81.81,0,0,1-.81-.81V62.22a0,0,0,0,1,0,0Z" transform="translate(50.66 6.63) rotate(39.74)"/><path class="cls-1" d="M22.17,11h1.37a0,0,0,0,1,0,0V78.75a.66.66,0,0,1-.66.66h-.06a.66.66,0,0,1-.66-.66V11A0,0,0,0,1,22.17,11Z"/><ellipse class="cls-2" cx="22.94" cy="21.48" rx="22.09" ry="6.36"/><ellipse class="cls-2" cx="22.94" cy="17.36" rx="22.09" ry="6.36"/><path class="cls-3" d="M16.16,17.87s7.36-5.84,13.39,0"/><rect class="cls-2" x="22.72" y="0.86" width="0.28" height="13.75"/></g></g></svg>