<svg xmlns="http://www.w3.org/2000/svg" viewBox="0 0 127.48 82.17"><defs><style>.cls-1{fill:none;}.cls-1,.cls-2,.cls-3{stroke:#335c69;stroke-miterlimit:10;stroke-width:1.73px;}.cls-2,.cls-5{fill:#335c69;}.cls-3,.cls-4{fill:#fff;}</style></defs><title>kick-snare</title><g id="Layer_2" data-name="Layer 2"><g id="Layer_1-2" data-name="Layer 1"><path class="cls-1" d="M76.71,67.31h.1a.81.81,0,0,1,.81.81V82.89a0,0,0,0,1,0,0H75.9a0,0,0,0,1,0,0V68.13A.81.81,0,0,1,76.71,67.31Z" transform="translate(183.8 83.76) rotate(140.26)"/><path class="cls-2" d="M100.94,65.24h.1a.81.81,0,0,1,.81.81V80.81a0,0,0,0,1,0,0h-1.73a0,0,0,0,1,0,0V66A.81.81,0,0,1,100.94,65.24Z" transform="translate(225.33 64.6) rotate(140.26)"/><path class="cls-1" d="M5.31,67.31H7a0,0,0,0,1,0,0V82.07a.81.81,0,0,1-.81.81h-.1a.81.81,0,0,1-.81-.81V67.31A0,0,0,0,1,5.31,67.31Z" transform="translate(49.44 13.41) rotate(39.74)"/><path class="cls-2" d="M89.75,65.24h1.73a0,0,0,0,1,0,0V80a.81.81,0,0,1-.81.81h-.1a.81.81,0,0,1-.81-.81V65.24A0,0,0,0,1,89.75,65.24Z" transform="translate(67.63 -41.06) rotate(39.74)"/><rect class="cls-3" x="66.22" y="11.59" width="60.39" height="23.19" rx="9.55" ry="9.55"/><path class="cls-4" d="M41.48,80.81a40,40,0,1,1,40-40A40,40,0,0,1,41.48,80.81Z"/><path class="cls-5" d="M41.48,1.73A39.11,39.11,0,1,1,2.37,40.84,39.15,39.15,0,0,1,41.48,1.73m0-1.73A40.84,40.84,0,1,0,82.31,40.84,40.84,40.84,0,0,0,41.48,0Z"/><path class="cls-4" d="M42.34,53.12A12.12,12.12,0,1,1,54.11,41,12,12,0,0,1,42.34,53.12Z"/><path class="cls-5" d="M42.34,29.42A11.6,11.6,0,1,1,31.09,41,11.44,11.44,0,0,1,42.34,29.42m0-1A12.64,12.64,0,1,0,54.63,41,12.46,12.46,0,0,0,42.34,28.38Z"/><rect class="cls-2" x="94.6" y="34.78" width="2.77" height="33.92"/></g></g></svg>