<svg xmlns="http://www.w3.org/2000/svg" viewBox="0 0 115.69 109.38"><title>audio-icon</title><g id="Layer_2" data-name="Layer 2"><g id="audio_icon" data-name="audio icon"><path class="lrg-audio" d="M115.09,55.58C109.74,31.07,85.79,13,57.85,13S6,31.07.61,55.58C.54,54.52.5,53.45.5,52.38.5,23.78,26.23.5,57.85.5s57.35,23.28,57.35,51.88C115.19,53.45,115.16,54.52,115.09,55.58Z"/><path class="med-audio" d="M102.7,72.64C98.18,53.74,79.54,39.88,57.85,39.88S17.51,53.74,13,72.64q0-.86,0-1.74c0-22.39,20.14-40.61,44.9-40.61s44.9,18.22,44.9,40.61Q102.74,71.78,102.7,72.64Z"/><path class="sml-audio" d="M89.81,84.24C86.6,70.82,73.62,60.72,58.18,60.19l-1.3,0C41.82,60.17,29,69.15,25,82c0-.09,0-.18,0-.27.55-15.82,14.68-28.22,32.18-28.22l1.27,0c17.88.62,32,14.28,31.41,30.45C89.82,84.05,89.82,84.15,89.81,84.24Z"/><g class="speaker"> <rect  x="48.09" y="100.12" width="19.5" height="8.76"/><polygon points="47.86 100.09 41.21 90.11 74.48 90.11 67.83 100.09 47.86 100.09"/></g></g></g></svg>