<svg xmlns="http://www.w3.org/2000/svg" viewBox="0 0 136 136"><defs><style>.cls-1,.cls-2,.cls-3,.cls-4{stroke:#000;}.cls-1,.cls-4{stroke-miterlimit:10;}.cls-2,.cls-3,.cls-4{fill:none;}.cls-2,.cls-3{stroke-linecap:round;stroke-linejoin:bevel;}.cls-2{stroke-width:8px;}.cls-3{stroke-width:10px;}.cls-4{stroke-width:4px;}</style></defs><title>film-icon</title><g id="Layer_2" data-name="Layer 2"><g id="video_icon" data-name="video icon"><rect x="92.62" y="77.36" width="8.76" height="19.5"/><path  d="M100.88,77.86v18.5H93.11V77.86h7.76m1-1H92.11v20.5h9.76V76.86Z"/><polygon points="101.4 97.1 101.4 77.13 111.39 70.48 111.39 103.75 101.4 97.1"/><path d="M110.89,71.41v31.41l-9-6V77.4l9-6m1-1.87-11,7.32v20.5l11,7.32V69.54Z"/><path d="M68,5A63,63,0,1,1,5,68,63.07,63.07,0,0,1,68,5m0-5a68,68,0,1,0,68,68A68,68,0,0,0,68,0Z"/><rect x="32.5" y="72.5" width="57" height="29"/><path d="M87,75V99H35V75H87m5-5H30v34H92V70Z"/><path class="cls-1" d="M30,86.67H25.5s-4-7.17-7-5.17l3,11s4,1,3-2H30Z"/><polyline class="cls-2" points="89 128 64.48 103.81 45.37 128"/><line class="cls-3" x1="65" y1="103" x2="65" y2="131"/><path class="cls-4 lrg-video-film" d="M72.09,47A12.5,12.5,0,1,0,85,59.09,12.49,12.49,0,0,0,72.09,47ZM68.61,58.7a.43.43,0,0,1-.5.34.44.44,0,0,1-.34-.51.43.43,0,0,1,.5-.34A.43.43,0,0,1,68.61,58.7ZM74,64.07a.43.43,0,0,1-.55-.27.43.43,0,0,1,.81-.28A.43.43,0,0,1,74,64.07Zm1.74-7.53a.43.43,0,0,1-.65-.57.43.43,0,0,1,.65.57Z"/><path class="cls-4 sml-video-film" d="M48.7,53A9,9,0,1,0,58,61.7,9,9,0,0,0,48.7,53ZM46.2,61.42a.31.31,0,0,1-.36.24.32.32,0,0,1-.24-.37.31.31,0,0,1,.36-.24A.31.31,0,0,1,46.2,61.42Zm3.86,3.87a.31.31,0,0,1-.4-.19.31.31,0,0,1,.58-.2A.31.31,0,0,1,50.06,65.29Zm1.25-5.42a.31.31,0,0,1-.47-.41.31.31,0,0,1,.47.41Z"/></g></g></svg>