<svg xmlns="http://www.w3.org/2000/svg" viewBox="0 0 290.56 112.09"><defs><style>.cls-1{fill:#047dbf;}</style></defs><title>css-text</title><g id="Layer_2" data-name="Layer 2"><g id="Layer_1-2" data-name="Layer 1"><path class="cls-1" d="M0,52.32c10,0,11.39-5.48,11.39-10.41A83.94,83.94,0,0,0,10.27,30.1,82,82,0,0,1,9.14,18.42C9.14,5.48,17.58,0,29.54,0h3V7.73H30c-8.3,0-11.11,4.5-11.11,12.1a61.55,61.55,0,0,0,1,10,65.64,65.64,0,0,1,1,10.69C21,49.51,17,54,10.69,55.69V56C17,57.52,21,62.3,20.82,71.3a64.21,64.21,0,0,1-1,10.69,63.25,63.25,0,0,0-1,10.13c0,7.88,3.24,12.24,11.11,12.24h2.53v7.74h-3c-11.67,0-20.39-5.06-20.39-19.27a80,80,0,0,1,1.12-11.53A78.14,78.14,0,0,0,11.39,69.9C11.39,65.54,10,59.49,0,59.49Z"/><path class="cls-1" d="M111.25,93.24c-4.5,2.25-13.5,4.5-25,4.5-26.72,0-46.83-16.88-46.83-48C39.38,20.11,59.49,0,88.88,0c11.81,0,19.27,2.53,22.5,4.22l-3,10a44.56,44.56,0,0,0-19.13-3.94c-22.22,0-37,14.2-37,39.1,0,23.21,13.36,38.11,36.43,38.11,7.45,0,15-1.55,20-3.94Z"/><path class="cls-1" d="M124.88,81.43a43.37,43.37,0,0,0,21.94,6.19c12.52,0,19.83-6.61,19.83-16.17,0-8.86-5.06-13.92-17.86-18.85-15.47-5.48-25-13.5-25-26.86C123.76,11,136,0,154.42,0c9.7,0,16.74,2.25,21,4.64l-3.37,10a37.75,37.75,0,0,0-18-4.5c-12.94,0-17.86,7.74-17.86,14.2,0,8.86,5.77,13.22,18.85,18.28,16,6.19,24.19,13.92,24.19,27.85,0,14.63-10.83,27.28-33.19,27.28-9.14,0-19.13-2.67-24.19-6Z"/><path class="cls-1" d="M194.22,81.43a43.37,43.37,0,0,0,21.94,6.19C228.68,87.62,236,81,236,71.44c0-8.86-5.06-13.92-17.86-18.85-15.47-5.48-25-13.5-25-26.86C193.09,11,205.33,0,223.75,0c9.7,0,16.74,2.25,21,4.64l-3.37,10a37.75,37.75,0,0,0-18-4.5c-12.94,0-17.86,7.74-17.86,14.2,0,8.86,5.77,13.22,18.85,18.28,16,6.19,24.19,13.92,24.19,27.85,0,14.63-10.83,27.28-33.19,27.28-9.14,0-19.13-2.67-24.19-6Z"/><path class="cls-1" d="M290.56,59.49c-10,0-11.39,6-11.39,10.41a78.14,78.14,0,0,0,1.13,11.39,80,80,0,0,1,1.13,11.53c0,14.2-8.86,19.27-20.39,19.27h-3v-7.74h2.39c7.88-.14,11.25-4.36,11.25-12.24a85,85,0,0,0-1-10.13A63.77,63.77,0,0,1,269.6,71.3c0-9,3.94-13.78,10.13-15.33v-.28C273.54,54,269.6,49.51,269.6,40.5a65.38,65.38,0,0,1,1.13-10.69,82.71,82.71,0,0,0,1-10c0-7.59-3-12-11.11-12.1h-2.53V0h2.81c12,0,20.53,5.48,20.53,18.42a82,82,0,0,1-1.12,11.67,83.94,83.94,0,0,0-1.12,11.81c0,4.92,1.41,10.41,11.39,10.41Z"/></g></g></svg>