<svg xmlns="http://www.w3.org/2000/svg" viewBox="0 0 456.86 123.81"><defs><style>.cls-1{fill:#fefefe;}.cls-1,.cls-10,.cls-11,.cls-12,.cls-13,.cls-14,.cls-15,.cls-16,.cls-2,.cls-3,.cls-4,.cls-5,.cls-6,.cls-7,.cls-8,.cls-9{stroke:#fff;stroke-miterlimit:10;}.cls-2{fill:#d6d4d3;}.cls-3{fill:#080408;}.cls-4{fill:#dac354;}.cls-5{fill:#e80e36;}.cls-6{fill:#4c0c75;}.cls-7{fill:#9aa7ad;}.cls-8{fill:#e55646;}.cls-9{fill:#830a5e;}.cls-10{fill:#efe05c;}.cls-11{fill:#a3084f;}.cls-12{fill:#cd073d;}.cls-13{fill:#b50d4d;}.cls-14{fill:#e38352;}.cls-15{fill:#680b6d;}.cls-16{fill:#980a56;}</style></defs><title>apache-feather</title><g id="Layer_2" data-name="Layer 2"><g id="Layer_1-2" data-name="Layer 1"><path class="cls-1" d="M42.21,61.31a.82.82,0,0,0-.81-.15.69.69,0,0,0-1.12-.2.7.7,0,0,0-.79,0c-1.23-.77-1.26.17-1.41,1-2.73,1.15-5.37,2.78-8.21,3.35-4.5.91-8.88,1.59-11.3,6.15-12.21.5-17.43,5.13-18,16-.22,12.54.13,13,13.38,17.23,2,.64,4,1.33,5.93,2.05a105.64,105.64,0,0,0,31.41,6.23c7.47.36,15.2-.33,22.82-.25a15.72,15.72,0,0,1,9.69,3.16c4.45,3.3,9.8.52,14.73.8,15.14.86,30.08,4.86,45.22,4.21,6.08-.26,11.86,3.76,16.72,2,10.78-3.84,21.59-1.3,32.31-2.26,20.77-1.86,41.69-.41,62.57-2.36,10.62-1,21.3-2.68,32-2.66,19.11,0,36.55-7.82,54.74-12a103.22,103.22,0,0,0,15.23-4.8c7.56-3.06,15.27-6.19,21.52-12.32,3.83-3.75,6.37-6.52,3.9-11.73,2.14-2.88.88-6.4,1.79-9.51,4,.53,3.76,4.08,4.92,6.69,1.6,3.57,1.26,8,5.09,11.93.5-4,3.41-6.24,1.41-9.52h0c7-.5,8.2,5.92,11.67,10.25,2.42-3.27-1.41-9.79,5.44-10.18l.64-.05-.66.12c-.61-1.47-2.53-2.52-1.81-4.67,3.7.38,4.67,5,8.58,4.48-.63-3.26-2.43-5.88-4.23-8.49,1.35-2.57,4,1,5.64-1.39-2.93-3.64-3.86-8.78-9.09-10.92-2.53-1-1-3,.53-4.37,2.21-1.24,4.35-2.56,6.61-3.73C430.36,39.64,442,34.84,451.86,27c1.38-1.1,4.78-1.71,2.95-4.28-1.25-1.75-4-1-5.53.69-2.35,2.56-3.89,1.75-5.32-.8,3.85-3.16,9.48-4.29,12-10.46l-53.32,19.9c-3.74-5.41.88-10.36,1-15.58.11-4-.22-7-3.74-8.86-2.65,1.46-.26,4.55-3.15,5.77-4.22-3-1.71-9.44-5.84-12.51-1.83,10.15-2.57,10.78-9.57,7.28,2.22,5.26-.33,9.9-.42,14.7-.09,4.63-3.12,10,2.53,13.59-2.18,2.19-4.44,4.24-7.83,4.12q0-4.26,0-8.52c1.74-2.9.69-5.78-.05-8.66.1-1.23.71-2.49-.28-3.63-1-3.82-2.7-6.94-7.1-7.54l-.16-.32-.35.1c-2.11-1.46-4.48.1-6.67-.56l-.09-.08c-.47-1.08-1.38-1.11-2.35-1l-5.93,1.53c-8.05-3.65-15.7,1.22-23.53,1.68-3.4.2-9.12-.85-11.77,4-6.26-4.5-12.2-2.2-18.11.83l-.26-.07c-1-1.17-2.22-.78-3.41-.29-4.91,2.43-10.76,1.81-15.51,4.75-5,2.34-11.29,0-15.87,4.09-1.23-.79-2.09.18-3.05.64-6.24.73-12.63.5-18.63,2.8-1.68-.58-2.88.38-4.12,1.26L237,32a2.9,2.9,0,0,0-1.32.4L223.6,35c-3.27,2.15-7.41-1-10.59,1.73-8.69,1.49-17.56.36-26.22,1.56-10.46,1.45-21.44-1.09-31.42,4-17.45,2.09-34.73,5.26-52,8.58-5-1-9.13,1-12.89,4-4,3.44-10,.74-14,4.41l-4.14.86c-1.79-2.59-4.47-2-7-2-2.62.35-5,1.39-7.92.4a12.34,12.34,0,0,0-13.36,3.15.73.73,0,0,0-.78-.26A.67.67,0,0,0,42.21,61.31Z"/><path class="cls-2" d="M382.78,74.73c2.47,5.21-.08,8-3.9,11.73-6.25,6.13-14,9.26-21.52,12.32a103.22,103.22,0,0,1-15.23,4.8c-18.2,4.18-35.63,12-54.74,12-10.75,0-21.42,1.67-32,2.66-20.88,1.95-41.8.5-62.57,2.36-10.72,1-21.53-1.58-32.31,2.26-4.86,1.73-10.64-2.28-16.72-2-15.15.65-30.09-3.35-45.22-4.21-4.93-.28-10.28,2.5-14.73-.8a15.72,15.72,0,0,0-9.69-3.16c-7.62-.08-15.36.61-22.82.25a105.64,105.64,0,0,1-31.41-6.23c-2-.73-3.94-1.42-5.93-2.05C.67,100.4.32,100,.54,87.42c5,6.47,13.32,5.71,19.85,8.88,5.46,3.91,12.1,2.74,18.14,4.2,2.22,1.74,4.28.82,6.32-.37a5.75,5.75,0,0,0,6.55,3c9.78-2.71,19.51-1.28,29.27-.28,7.07,6.63,16.14,3.4,24.24,4.92l4.24-1.09L129,110c8,2,16,1.15,24,.63,4.4,2.24,8.7,3.25,13.61.92,9.34-4.43,19.41,1.84,28.91-1.51l13.21-.3c15.87-1.06,31.88.78,47.66-2.23,3.39,3.1,6.64-.1,10-.23,4.63,1.74,8.73-.17,12.87-1.87,4.49,2.43,8.8.85,13.11-.62,3.36,1.06,6.33-.91,9.51-1.21,8.12,2.24,14.74-3.17,22-4.79,14.3-3.17,28.19-8.27,42.1-13,4-1.38,8.17-3.5,10.11-8Z"/><path class="cls-3" d="M402.64,32.07,456,12.17c-2.53,6.17-8.15,7.29-12,10.46-12.86,5.94-24.5,14.23-38.3,18.51-4.15,1.29-10.72.27-12.54,6.72-3.15-.14-6.26-.07-8.87,2.09-1.74-2.09-3.52-1.08-5.3-.08-9.21,2.24-18.44,4.35-27.61,6.74C329.17,62.35,306.76,67,284.25,71.11l-31.43,5.8a23.93,23.93,0,0,0-4.12-.29c-9.64.94-19.27,1.95-28.9,3-9.4,1-19-.32-28.24,2.43-6.39-2-12.77-.33-19.16,0a5.39,5.39,0,0,0-6.22.62c-6.75-1.46-13.49-.49-20.22.17l-12.25.27a23.8,23.8,0,0,0-13.1.51c-2.79-1.8-5.56-1.34-8.32.08a27.29,27.29,0,0,0-18,.59c-2.43-1.78-4.82.75-7.24.07-5.12-2.51-10.47-.49-15.7-.79a81.57,81.57,0,0,1-10.84-.4c-4.13-.25-8.69,2.45-12.56-.92-.25-2.73,1.9-2.12,3.3-2.2,6.62-.38,13.25-.64,19.88-.95l15.24-.94,16.14-1c4.28-.64,9,2,12.85-1.89,4.31,2.16,8.64,1.85,13,.07,3.54,3.45,7.4-.79,11,.46,4.78-.79,9.77.57,14.44-1.4,3.31,1.68,6.57.57,9.84-.2,3.26,1.24,6.35.64,9.36-.86l1.68.35c7.88-.32,15.86.93,23.62-1.41,3,0,6.07.48,8.94-.1,7.58-1.54,15.66.44,22.91-3.28,2.7.13,5.43.6,8-.62,4-.37,8.23.45,11.9-2,3,2.05,5.49.2,8.12-.86,3.92,1.26,7.17-.86,10.58-2.13a3.76,3.76,0,0,0,4.9-.55,2,2,0,0,0,1.31-.38l-.08,0,2,.16a4.57,4.57,0,0,0,1.23-.37c11.26-.63,22.18-3.31,33.23-5.29a510.14,510.14,0,0,0,64.32-16.29c3.4.12,5.65-1.93,7.83-4.12C390.5,37.81,396.42,34.28,402.64,32.07Z"/><path class="cls-4" d="M71.12,79.07c-6.63.3-13.26.56-19.88.95-1.4.08-3.55-.53-3.3,2.2l.15,0c-4.09-3.19-8.49-1.64-12.84-.82C29.72,80,24.41,82,18.4,81.91c.75,1.2,1,2.07,1.44,2.24,5,1.79,9.86-1.61,14.86-.47l5.17.36c-4.5,7.26-12.64,8.74-19.49,12.26-6.52-3.17-14.8-2.4-19.85-8.88.6-10.86,5.83-15.5,18-16,3.65,2.49,7,2.08,11,.07,4.67-2.37,9.66-4.32,14.24,1.42,1.82,2.28,5.61,3,8.56,4.35a3,3,0,0,0,3.25-.49c.84-.72,1-2.11.3-2.42C50.27,71.69,51,63.16,44.08,61.76a12.34,12.34,0,0,1,13.36-3.15c2.91,1,5.3-.05,7.92-.4-2.49,1.62-3.36,5.12-6.5,5.91-3.84,1-3.15,3-.91,4.61,2,1.37,2.95,4.33,6,4C66.35,74.86,70,75.55,71.12,79.07Z"/><path class="cls-5" d="M280.1,22.77c4.76-2.94,10.6-2.32,15.51-4.75l3.41.29.26.07c6.14,2,12.11.27,18.11-.83,2.65-4.81,8.37-3.75,11.77-4,7.83-.47,15.48-5.33,23.53-1.68.1,2,3.55,3.75.81,6-3,2.48-5.61.06-9-1.35,5,7.72-3.42,5.18-5,7.89h-.06c-2.14-4-5.37-2.1-7.87-1-4.63,2.08-9,4.79-13.46,7.24-1.92.11-2.58-1.43-3.48-2.66.39-3.11-2.2-3.38-4.1-4.31,1.1,7.45-6.05,3.36-8.39,6l-5-3.54c-1.08,6.48-4.86,7.51-12.64,2.77l4.47,6.48q.32.61.67,1.21c-2.47,1.34-4.17,4.3-7.61,3.62-.9-1.25-1.61-2.76-3.5-2.74L276,34.13c-2.18-3.62-7.15-8.12,2.8-7.35C282.29,27.06,278.43,23.74,280.1,22.77Z"/><path class="cls-6" d="M375.63,40.57a510.14,510.14,0,0,1-64.32,16.29c-11.05,2-22,4.65-33.23,5.28l-.83-6.56c2.78-1,6.1-3.54,8.46-1.35,6.2,5.75,9.7,3.23,13-2.88.53-1,2.3-1.69,3.57-1.84,8-.95,15.37-3.65,24-3s16.93-5,26-6.66c7.18-1.3,15.39-4.64,22.88-7.77l.48-.06Z"/><path class="cls-5" d="M382.78,74.73l-6.64,3.1c-9,2.23-18,4.43-27,6.71-2.8.71-5.56,1.67-7.14-1.93,3.61-2.25,3.74-5.81,3.6-9.48l1.55-2.72L350.63,68l2.3-1.55a10.57,10.57,0,0,1,5,5q0,.45,0,.89l.3-.84c.68-1.9-.47-4.1,1-5.88,5.46-.73,10.47-6.5,16.51-1.38.9.76,1.46-.61,1.72-1.44.71-2.24,2.62-3.1,4.47-4.06l2.69,6.53C383.66,68.34,384.91,71.85,382.78,74.73Z"/><path class="cls-7" d="M402.64,32.07c-6.22,2.22-12.14,5.75-19.18,4.39-5.65-3.61-2.61-9-2.53-13.59.09-4.8,2.64-9.44.42-14.7,7,3.5,7.74,2.87,9.57-7.28,4.13,3.07,1.62,9.49,5.84,12.51,2.89-1.22.5-4.31,3.15-5.77,3.53,1.83,3.85,4.82,3.74,8.86C403.52,21.71,398.91,26.65,402.64,32.07Z"/><path class="cls-2" d="M393.12,47.84c1.82-6.45,8.39-5.43,12.54-6.72,13.8-4.27,25.44-12.57,38.3-18.51,1.43,2.55,3,3.36,5.32.8,1.52-1.66,4.28-2.44,5.53-.69,1.83,2.57-1.56,3.18-2.95,4.28-9.87,7.83-21.5,12.63-32.57,18.36-2.26,1.17-4.41,2.49-6.61,3.73C406.24,47.37,399.62,48.48,393.12,47.84Z"/><path class="cls-7" d="M393.12,47.84c6.51.64,13.13-.47,19.56,1.26-1.51,1.33-3.06,3.34-.53,4.37,5.23,2.14,6.17,7.27,9.09,10.92-1.63,2.37-4.29-1.18-5.64,1.39-2.31.27-6,1.58-6.69.65-4-5.25-8.17-1.91-12.34-1.09h0c-1.46-2.85-5.14.86-6.5-2.19-2-4.39-3.88-8.8-5.82-13.2C386.86,47.77,390,47.7,393.12,47.84Zm18.82,12.4c-.72.83-.16,1.24.4,1.52s1.26,1.33,2.11.44c.14-.15-.14-.85-.38-1.17C413.51,60.31,412.82,59.77,411.94,60.24Z"/><path class="cls-2" d="M396.57,65.33c4.17-.81,8.37-4.16,12.34,1.09.71.94,4.39-.38,6.69-.65,1.81,2.62,3.6,5.24,4.23,8.49-3.91.55-4.88-4.1-8.58-4.48-.72,2.15,1.2,3.2,1.81,4.67v-.07c-6.85.39-3,6.91-5.44,10.18C404.18,80.24,403,73.82,396,74.32c-.59-.65.18-2.5-1.63-2-.38.11-.83,1.16-.72,1.66.43,2,1.5.63,2.35.33,2,3.29-.91,5.57-1.41,9.52-3.82-3.92-3.49-8.36-5.09-11.93-1.17-2.61-1-6.15-4.92-6.69l-2.69-6.54c.76-1.33,0-2.33-.69-3.36.49-2.33-2-3.45-2.23-5.47,1.78-1,3.56-2,5.3.08,1.94,4.4,3.86,8.81,5.82,13.2,1.36,3.05,5-.65,6.5,2.19a1.87,1.87,0,0,0-.28.49c0,.11.1.25.16.38Zm-4,3.4-.59.18.72.34Z"/><path class="cls-8" d="M103.39,50.92c17.25-3.31,34.53-6.49,52-8.58l-.11.67c-3,.69-4.61,3.14-5.7,5.49s-2.06,3.06-4.48,2.68c-3-.48-4.94,1.92-7.27,3.24a4,4,0,0,0-.73.23c-2.64-2.7-5.76-5-9.54-3.43a5.13,5.13,0,0,0-2.9,6.85l-6.91,1.42-3.19-.82c-1.31-3.05-3.31-5-6.95-4.26Z"/><path class="cls-9" d="M375.62,23.4c.74,2.88,1.79,5.76.05,8.66l-.48.06c-1.12-2.27-2.5-2.64-5.05-1.68-6.19,2.34-13.15,2-19.07,5.66-4.11,2.55-9.41-1.29-13.18.94-6.08,3.6-11,10.11-19,3.94-.11-.08-.42.13-.65.17l-17.91,3.46-1.57-2.27c2.64-2,5.63-2.69,8.83-3.54,3.9-1,9.39,1.79,11.74-3.89q.44.51.83,1.06c2.86,5.65,7.08,2.81,10.45,1.17,3.59-1.74.71-4.14-.38-6.18a9.47,9.47,0,0,1,1.06-.84c4,6.23,9.91.15,14.77,2.27,3.55,1.55,5.79-2.93,9.09-3.73C362,27,368.8,25.16,375.62,23.4Z"/><path class="cls-8" d="M155.37,42.34c10-5.11,21-2.57,31.42-4,8.66-1.2,17.53-.07,26.22-1.56,1.82,3.74,6.76,4,8.63,7.64v-.06l-3.51,2.32c-2.52-1-4.1-4.11-7.42-3.24-5.78-4-11.74-2.6-18.24-1.78-7.21.9-14.56.4-21.36,3.67l-1.32.55A60.18,60.18,0,0,0,155.26,43Z"/><path class="cls-5" d="M71.12,79.07C70,75.55,66.35,74.86,64,72.75c3.14-2.72,6.82-5,6-10.21-.1-.63,1.56-1.54,2.4-2.33l4.15-.86L86,62.77l.61,1.33c-2.63,2.12-6.11,3.77-4.51,8.21.5,2.61,3.15,3.65,4.24,5.83Z"/><path class="cls-10" d="M44.08,61.76c6.87,1.4,6.19,9.92,11.81,12.58.67.32.54,1.7-.3,2.42a3,3,0,0,1-3.25.49c-2.94-1.33-6.74-2.07-8.56-4.35-4.57-5.75-9.56-3.79-14.24-1.42-4,2-7.32,2.42-11-.07,2.42-4.56,6.8-5.24,11.3-6.15,2.85-.57,5.48-2.2,8.21-3.35l1.41-1a.69.69,0,0,1,.79,0,3.11,3.11,0,0,0,1.12.2.82.82,0,0,1,.8.15,2.64,2.64,0,0,0,1.09.2A.73.73,0,0,1,44.08,61.76Z"/><path class="cls-11" d="M375.62,23.4C368.8,25.16,362,27,355.14,28.67c-3.29.8-5.54,5.28-9.09,3.73-4.86-2.12-10.76,4-14.77-2.27a9.65,9.65,0,0,1-.49-1.29c0-.16.27-.55.28-.54,4.33,2.08,6.17-1.21,8.32-3.83h.06c.37,3,.79,5.85,5,3.55,2.18-1.18,7.54.8,4.64-5,4.63,2.89,7.52-1.69,11.26-2.61,2.13,2.09,3.62,1.88,4.29-1.21L367,17.6c1.28,1.64,2.58,3.76,4.79,1.31,2-2.2,2.58-.2,3.57.86S375.73,22.17,375.62,23.4Z"/><path class="cls-5" d="M218.14,46.66l3.51-2.32.6,0-.61.08c-1.87-3.68-6.81-3.9-8.63-7.64,3.18-2.73,7.32.41,10.59-1.74,2.87,3.31,8.32,1.56,10.85,5.54-2.05,4-4.5,6.82-10.61,1.76L229,49.75l3.28,2.64C225.18,56.56,224.77,56.39,218.14,46.66Z"/><path class="cls-12" d="M367,17.6l-2.29,1.57c-1.79-.87-3,.33-4.29,1.21-3.74.92-6.63,5.5-11.26,2.61,2.9,5.83-2.46,3.84-4.64,5-4.26,2.3-4.67-.51-5-3.55,1.62-2.71,10.08-.17,5-7.89,3.39,1.41,6,3.84,9,1.35,2.74-2.29-.7-4-.81-6l5.93-1.53,2.35,1,.09.08c2,2.73,4.31,2,6.67.56l.35-.1.16.32C370.61,14.68,369,16.2,367,17.6Z"/><path class="cls-8" d="M72.37,60.22c-.84.78-2.5,1.69-2.4,2.33.81,5.16-2.87,7.5-6,10.21-3.06.31-4.06-2.65-6-4-2.24-1.57-2.93-3.66.91-4.61,3.15-.78,4-4.28,6.5-5.91C67.9,58.18,70.58,57.63,72.37,60.22Z"/><path class="cls-5" d="M103.39,50.92l4.22,3.5c-.43,4.24-4,4.4-6.94,5.31l0-.09c-1.1-.76-2.08-.33-3,.32L92.61,58.2c-2.38,0-3.18-1-2.11-3.25C94.26,51.89,98.36,49.91,103.39,50.92Z"/><path class="cls-8" d="M242.55,30.3c6-2.31,12.39-2.07,18.63-2.8l.42.38c-1.18.51-3.48,1.25-2.47,2.39,4.17,4.68-1,5-2.84,6.95l-6.4-3.93C247.65,31.78,244.46,32.63,242.55,30.3Z"/><path class="cls-5" d="M242.55,30.3c1.91,2.33,5.11,1.49,7.35,3,.7,1.74,3.25,3.11,1.66,5.3-1.46,2-3.65,1-5.57.47-1.06-.29-2.12-.62-3.17-.94a2.81,2.81,0,0,1-.59-.88l-2-.51-2-.53-2.07-3.07a1.1,1.1,0,0,0-.44-.74A2.9,2.9,0,0,1,237,32c.66.47,1.2.55,1.42-.43C239.66,30.68,240.87,29.72,242.55,30.3Z"/><path class="cls-8" d="M238.2,36.2l2,.53,2,.51a2.81,2.81,0,0,0,.59.88l0,0-5.83,4a6.78,6.78,0,0,0-1,.37l-1.63-2c-2.53-4-8-2.23-10.85-5.54l12.1-2.63a1.09,1.09,0,0,1,.44.74c-.46.44-1.38,1.16-1.3,1.29A3.59,3.59,0,0,0,238.2,36.2Z"/><path class="cls-13" d="M280.1,22.77c-1.67,1,2.19,4.29-1.35,4-10-.77-5,3.73-2.8,7.35l-1,.77c-2.11-4.6-7-5.33-10.73-7.63l.05-.41C268.81,22.73,275.06,25.11,280.1,22.77Z"/><path class="cls-14" d="M90.5,55c-1.06,2.23-.27,3.25,2.11,3.25L86,62.77l-9.5-3.41C80.48,55.69,86.46,58.39,90.5,55Z"/><path class="cls-8" d="M317.39,17.55c-6,1.1-12,2.85-18.11.83C305.19,15.35,311.13,13,317.39,17.55Z"/><path class="cls-13" d="M367,17.6c2.06-1.4,3.62-2.92,1.26-5.36,4.4.59,6.12,3.72,7.1,7.53-1-1.06-1.59-3.06-3.57-.86C369.57,21.36,368.26,19.24,367,17.6Z"/><path class="cls-13" d="M367.72,12c-2.36,1.39-4.66,2.17-6.67-.56C363.24,12.11,365.61,10.55,367.72,12Z"/><path class="cls-8" d="M299,18.31,295.61,18C296.8,17.53,298,17.14,299,18.31Z"/><path class="cls-13" d="M361,11.37l-2.35-1C359.59,10.25,360.5,10.28,361,11.37Z"/><path class="cls-4" d="M39.49,60.95l-1.41,1C38.23,61.12,38.27,60.17,39.49,60.95Z"/><path class="cls-13" d="M261.18,27.49c1-.46,1.82-1.43,3.05-.64l-.05.41-2.58.61Z"/><path class="cls-2" d="M413.07,74.46l.66-.12-.64.05Z"/><path class="cls-4" d="M41.4,61.16a3.11,3.11,0,0,1-1.12-.2A.69.69,0,0,1,41.4,61.16Z"/><path class="cls-4" d="M43.3,61.5a2.64,2.64,0,0,1-1.09-.2A.67.67,0,0,1,43.3,61.5Z"/><path class="cls-8" d="M238.43,31.56c-.22,1-.76.9-1.42.43Z"/><path class="cls-5" d="M256.45,107.53c-15.78,3-31.79,1.17-47.66,2.23,1.31-.94,2.59-1.92,3.93-2.82,1.68-1.13,5.55-.88,4-4.15-1.26-2.62-4.28-2-6.7-.72-4.81,2.65-9.61,5.32-14.42,8-9.51,3.35-19.57-2.92-28.91,1.51-4.92,2.33-9.21,1.33-13.62-.92,1.3-1.4,3.65-1.73,4.38-4.48-4.91.89-8.2-2.33-12.08-4L155,93.45a5.79,5.79,0,0,1,1-.59c3.29,2.88,6.29,6.5,10.95,1.55,1.39-1.47,4.17-.59,6,.36,2.61,1.37-2.44,2.22-.57,3.81,3.17-.65,5.6-7.39,8.94-2.22,1.79,2.76,2.12,1.65,3.49.73,1.92-1.3,3.79-2.7,5.68-4.05L194,90.74l9,2.37c-1.26,4.07-5.5,4.54-7.63,7.5,2.81.28,4.68-.74,6.52-2.82a13.49,13.49,0,0,1,8.91-4.93c3.63-.34,4.24,1.28,2.4,4.57,4-1.34,4.46-4.68,6.12-7.07a9,9,0,0,1,5.42-2c1.89.86,1.81,4.42,4.14,4,3.76-.74,4.87,1.74,6.4,4q0,.44,0,.87l.29-.83c5.65-5.41,7-5.23,9.83,2.57,3.1-10.71,11.4-7.71,18.31-8.6,3.95-.51,2.24,2.38,2.85,3.9-1.36,2.86-4.93,4.23-5.25,7.79C259.78,104,256.58,104.43,256.45,107.53Z"/><path class="cls-14" d="M342,82.61c1.58,3.61,4.34,2.65,7.14,1.93,9-2.28,18-4.48,27-6.71-1.94,4.46-6.09,6.58-10.11,8-13.9,4.76-27.8,9.85-42.1,13-7.3,1.62-13.92,7-22,4.79a53.17,53.17,0,0,1,10.58-9.27l2.22-1.59c2.8.44,5.62,1.16,8.31-.43l2.06-1.16c5.7,3.45,8.48-.22,11-4.52l.49-2Z"/><path class="cls-5" d="M80.66,102.8c-9.76-1-19.49-2.43-29.27.28a5.75,5.75,0,0,1-6.55-3l3.52-2.6c6.6-1.6,11.24-6.62,17-9.76a3.31,3.31,0,0,0,.69.78c.58,4.62,4.48,3.6,6.83,3.15a25.38,25.38,0,0,0,10.7-4.75c.54,2.82,6.71-.31,5.07,4.81l-5.17,3.93c3.3,2.08,8.31-3.82,9.9,3.31C88.88,99.51,85.32,103,80.66,102.8Z"/><path class="cls-5" d="M279.27,105.44c-4.13,1.7-8.24,3.61-12.87,1.87.07-2.62,3-2.71,4-4.54a6.58,6.58,0,0,0,4.11-7.24c-.44-3.09-4.63-.52-6.44-2.48a6.07,6.07,0,0,0,1.07-4.62l1.45-3,1.51-2.52c2.13,2,8.15-.2,6.48,5.67-1.23,4.31.87,4.79,4.22,5,1.53.07,3,.92,4.52,1.42.24,1.8-2.58,2.58-1.54,4.64l-2.23,2.32c-2.12.18-3.94.77-4.44,3.2Z"/><path class="cls-10" d="M20.38,96.3c6.85-3.52,15-5,19.49-12.26l6.65-.68c-.88,2-2.32,3.74.62,5.77,3.15,2.17,2.85,4.4-1.29,5.51a12.34,12.34,0,0,0-7.33,5.84C32.49,99,25.85,100.21,20.38,96.3Z"/><path class="cls-4" d="M38.52,100.49a12.34,12.34,0,0,1,7.33-5.84c4.14-1.11,4.44-3.33,1.29-5.51-2.94-2-1.49-3.75-.62-5.77l1.57-1.1-.15,0c3.87,3.37,8.43.68,12.56.92a81.69,81.69,0,0,0,10.84.4c-.65,2.88-3.5,3.39-5.34,5a3.27,3.27,0,0,1-.68-.78,2.67,2.67,0,0,0-3.39-1.32A21.55,21.55,0,0,0,48.36,97.52l-3.52,2.6C42.8,101.32,40.74,102.23,38.52,100.49Z"/><path class="cls-8" d="M129,110l-19.91-3.38,7.47-6.73L122,96.32l7.4,4.91c-1.68,1.71-2.11,3.06,1,3.19,1.66.07,3.05.43,3.62,2.21Z"/><path class="cls-8" d="M80.66,102.8c4.66.19,8.22-3.29,12.67-3.83,1.72.57,3-.37,4.31-1.23l9.88,1.85a6.11,6.11,0,0,1,.33.77c-2.12,2-6.66,3-2.94,7.37C96.79,106.2,87.72,109.43,80.66,102.8Z"/><path class="cls-14" d="M129,110l5-3.39c4.66.71,7.87-2.26,11.38-4.47l-.07.06c3.89,1.63,7.17,4.85,12.09,4-.73,2.75-3.08,3.07-4.38,4.48C145,111.16,137,112,129,110Z"/><path class="cls-5" d="M312.46,94.33a53.18,53.18,0,0,0-10.58,9.27c-3.18.31-6.15,2.27-9.51,1.21,1.52-1.22,3-2.46,3.6-4.42a8,8,0,0,0,4.22-6C304.28,92.3,308.36,89.48,312.46,94.33Z"/><path class="cls-14" d="M195.58,110.06c4.8-2.66,9.6-5.34,14.42-8,2.42-1.33,5.44-1.9,6.7.72,1.57,3.27-2.29,3-4,4.15-1.34.9-2.62,1.88-3.93,2.82Z"/><path class="cls-4" d="M296,100.39c-.61,2-2.09,3.2-3.6,4.42-4.31,1.47-8.61,3-13.11.62l-.16-.35,4.44-3.2,2.23-2.32c2.23-2.46,5.11-1,7.68-1.41C295.82,97.77,296.72,97.82,296,100.39Z"/><path class="cls-10" d="M270.4,102.76c-1,1.83-3.93,1.92-4,4.55-3.32.12-6.56,3.32-10,.22.13-3.1,3.33-3.52,4.77-5.47,2.31-1.56,5-1.79,7.64-2.16C272.39,99.41,269.82,101.86,270.4,102.76Z"/><path class="cls-5" d="M104.9,107.72c-3.71-4.33.82-5.37,2.95-7.37,2.86-1.3,5.8-1.07,8.76-.45l-7.47,6.73Z"/><path class="cls-15" d="M379,49.86c.27,2,2.72,3.14,2.23,5.47a2.89,2.89,0,0,0-3.72-.74A106.28,106.28,0,0,1,365,59.17c-6.23,1.67-13,1.47-18.65,5.14-4.22-4.2-6.66-1.46-8.42,2.39-.84,1.83-.84,4-1.23,6.08-11.41,4-23.63.83-35.18,4.11-6.72,1.91-13.42-1.26-20.16-1.3-2.54,0-6.35-2.18-7.44,2.57L272,79.86c-4,.35-7.92-1.26-12.13,0a6,6,0,0,1-7-3l31.43-5.8c22.51-4.14,44.92-8.75,67.09-14.51C360.51,54.21,369.75,52.1,379,49.86Z"/><path class="cls-9" d="M252.82,76.9a6,6,0,0,0,7,3c4.2-1.26,8.11.35,12.12,0q.05,1.52.11,3l-1.51,2.53c-3.44-1.63-7-5.39-10.14.35l-1.08.76c-1.37-1.41-1.95-3.25-4.72-3.48-9.07-.77-18.09-2.24-26.48,2.85a8.71,8.71,0,0,0-1.12.67c-3.61-2.66-8.07-2.38-12.14-3.4-2.81-.7-3.44,1.39-3.17,3.77l-3,.48a4.3,4.3,0,0,0-5.08.06,8.64,8.64,0,0,0-6.21.89c-1.93-3-5.07-3.81-8.27-4.49L191.55,82c9.25-2.75,18.84-1.43,28.24-2.43,9.63-1,19.26-2,28.9-3A23.93,23.93,0,0,1,252.82,76.9Z"/><path class="cls-6" d="M137.09,54.66a4.06,4.06,0,0,1,.73-.23l11.79,12.13.15,0a3.58,3.58,0,0,0-.21.56,10.13,10.13,0,0,0,1,.46L152.24,70c-.7,1.89.75,3,1.54,4.37-4.67,2-9.66.61-14.44,1.4L129.48,62C130.42,57.87,134.85,57.4,137.09,54.66Z"/><path class="cls-11" d="M153.78,74.4C153,73,151.54,71.91,152.25,70c2.84-3.08,11.34,1.77,10-7.15,7.8.56,8.4-9.74,15.48-10.27a11.22,11.22,0,0,1,5.21,4.72c-7.56,4.35-13.21,10.88-19.32,16.88C160.35,75,157.1,76.07,153.78,74.4Z"/><path class="cls-15" d="M230.12,68.89c-7.25,3.72-15.32,1.74-22.91,3.28-2.87.58-6,.1-8.94.1L196.77,70c3.63.11,5.6-3.44,9.25-3.88,6.54-.79,13-2.54,19.42-3.89Z"/><path class="cls-6" d="M156,92.86a5.73,5.73,0,0,0-1,.59c-4.83-.49-9.83.87-14.53-1.25l1.44-2.8c1.55-2.07,3.62-3.81,4-6.58,6.74-.66,13.47-1.63,20.22-.17l-4.57,3.75C159.41,88.27,157.06,90,156,92.86Z"/><path class="cls-12" d="M129.48,62l9.87,13.82c-3.63-1.25-7.49,3-11-.46l-3.39-5.2-5.7-7.84-1.49-2.79,6.92-1.42C126.62,58.94,127,61.75,129.48,62Z"/><path class="cls-6" d="M196.77,70l1.51,2.28c-7.76,2.34-15.73,1.09-23.61,1.41C178.8,69.59,185,67.94,188,62.55c1,1.17,1.69,2.67,3.57,2.57q.41.52.86,1Z"/><path class="cls-9" d="M191.57,65.13c-1.88.1-2.61-1.4-3.57-2.57-5.41-1.32-10.76,2.53-15,10.78-3,1.5-6.1,2.11-9.36.86,6.11-6,11.76-12.53,19.32-16.88a6.51,6.51,0,0,0,1-.46l5.33,4.65Z"/><path class="cls-11" d="M86.36,78.13c-1.09-2.18-3.74-3.22-4.24-5.83,4.41.49,8-.66,10.06-5l8,6.27,2.37,3.54Z"/><path class="cls-9" d="M66,88.54c1.84-1.6,4.69-2.12,5.34-5,5.24.3,10.59-1.71,15.71.79l-3.52,2.59a25.38,25.38,0,0,1-10.7,4.75C70.48,92.14,66.59,93.15,66,88.54Z"/><path class="cls-15" d="M120.6,83.6a23.8,23.8,0,0,1,13.1-.51,2.39,2.39,0,0,0-1.33,2.59l-5.09,5a4.43,4.43,0,0,0-1.14.6c-.91-.36-1.37,0-1.37.93l-2.2,1.44C121.52,91.08,114,93,118,87,119.12,86.06,120.56,85.38,120.6,83.6Z"/><path class="cls-12" d="M102.5,77.15l-2.37-3.54c1.74-3,10.82-.17,6.53-8.08l3.14,1.68c.7,1.86,2.23,2.9,3.83,3.85l0,0-.07,1.84,1.76,2.4C111.55,79.18,106.78,76.51,102.5,77.15Z"/><path class="cls-16" d="M161.6,86.41l4.57-3.76a5.39,5.39,0,0,1,6.22-.62c-.16,5.11,4,4.43,7,5.19L176,89.58A16.62,16.62,0,0,1,161.6,86.41Z"/><path class="cls-6" d="M115.35,75.26l-1.76-2.4q0-.92.07-1.84l0,0c3.55-2.92,7.16-5.17,11.3-.93l3.39,5.2C124,77.12,119.66,77.42,115.35,75.26Z"/><path class="cls-11" d="M83.53,86.93l3.52-2.59c2.42.68,4.81-1.85,7.24-.07L95,85.75c-.8,1.93-4.17,4.81,1.64,4.25,2.34-.23,4.58.16,6.19,2.18l-2.32,1.76c-4.25.86-8-1-11.88-2.2C90.24,86.62,84.07,89.75,83.53,86.93Z"/><path class="cls-15" d="M179.41,87.22c-3.06-.75-7.17-.08-7-5.19,6.39-.36,12.77-2,19.16,0l-2.39,1.88-1.52,2.74c-1.78-.85-3,.38-4.27,1.23l-2-.24Z"/><path class="cls-6" d="M268.75,63.31c-3.42,1.27-6.66,3.39-10.58,2.12,2.78-2.42.49-4.32-.66-6.33l.3-2,8.15-.63,1.55,2.38Z"/><path class="cls-16" d="M230.12,68.89l-4.68-6.66L223,58.64c4.12,1.39,7.73,7.42,12.68,1.42l1.59,4.39.83,3.82C235.55,69.5,232.82,69,230.12,68.89Z"/><path class="cls-6" d="M95,85.75l-.68-1.48a27.3,27.3,0,0,1,18-.59l-1.05,1.18a8.83,8.83,0,0,0-3.82,3.8C103.72,85.73,99.18,86.49,95,85.75Z"/><path class="cls-6" d="M238.15,68.27l-.83-3.82c3.13-3.7,7.65-2,11.49-3q.38.57.71,1.18L250,66.3C246.37,68.72,242.16,67.9,238.15,68.27Z"/><path class="cls-15" d="M173,73.34c4.25-8.26,9.61-12.1,15-10.78-3,5.39-9.2,7-13.34,11.13Z"/><path class="cls-11" d="M132.37,85.68a2.38,2.38,0,0,1,1.33-2.59l12.25-.27c-.4,2.77-2.48,4.51-4,6.58a5.09,5.09,0,0,0-4.13-.82C136.07,87.46,133.57,87.77,132.37,85.68Z"/><path class="cls-15" d="M268.75,63.31l-1.24-4.47,9.55-3.29.19,0,.83,6.56a4.52,4.52,0,0,1-1.23.37l-2-.16.08,0c-.62-.5-1.11-.57-1.31.38A3.76,3.76,0,0,1,268.75,63.31Z"/><path class="cls-15" d="M250,66.3l-.53-3.62c3.17-.07,5.48-2,8-3.58,1.15,2,3.44,3.91.66,6.33C255.54,66.49,253,68.35,250,66.3Z"/><path class="cls-9" d="M111.23,84.86l1.05-1.18c2.76-1.42,5.53-1.88,8.31-.08,0,1.78-1.48,2.46-2.64,3.36C116,85.27,113,87.21,111.23,84.86Z"/><path class="cls-6" d="M273.65,62.76c.2-.95.69-.88,1.31-.38A2,2,0,0,1,273.65,62.76Z"/><path class="cls-6" d="M274.87,62.35l2,.16Z"/><path class="cls-3" d="M34.7,83.68c-5-1.14-9.86,2.26-14.86.47-.47-.17-.69-1-1.44-2.24,6,.1,11.33-1.94,16.86-.46Z"/><path class="cls-3" d="M48.09,82.26l-1.57,1.1L39.87,84l-5.17-.36.56-2.23C39.6,80.63,44,79.08,48.09,82.26Z"/><path class="cls-11" d="M319.32,34.92c-2.35,5.68-7.84,2.86-11.74,3.89-3.2.84-6.19,1.55-8.83,3.54-3.16.45-4.64-2.78-7.33-3.36l-1.88-2.31q-.34-.6-.66-1.21c4.38,1,8.62,1,12.49-1.72a2.9,2.9,0,0,0,3.08-.39c2.06-.46,4.35.63,6.26-.88,2.33,1.14,4.68,1.77,7.08.19Z"/><path class="cls-13" d="M278.43,37.55c1.9,0,2.6,1.48,3.5,2.74l-.34,2c-2.1,3.16-8.91-.27-8.4,3.86.91,7.36-4.21,6-7.77,7.31a2.92,2.92,0,0,1-2.72-1.56l-.42-3.28c3.83-2.26,8.13-4.28,4.93-10l1.06-.83h0C271.75,40.6,275.15,41.79,278.43,37.55Z"/><path class="cls-12" d="M319.32,34.92l-1.53-2.27.28-1.92c4.47-2.45,8.83-5.15,13.46-7.24,2.5-1.12,5.73-3.05,7.87,1-2.15,2.62-4,5.91-8.32,3.83,0,0-.32.38-.28.54a9.65,9.65,0,0,0,.49,1.29,9.53,9.53,0,0,0-1.06.83c-2.87,2.64-6.79,3.19-10.07,5Q319.76,35.43,319.32,34.92Z"/><path class="cls-12" d="M301.37,33.74c-3.87,2.7-8.11,2.71-12.49,1.72L284.41,29c7.78,4.74,11.56,3.71,12.64-2.77l5,3.55,0,.11A2.52,2.52,0,0,0,301.37,33.74Z"/><path class="cls-12" d="M281.6,42.27l.34-2c3.43.68,5.14-2.28,7.61-3.62L291.43,39c.64,2.08,2.48,4.83-.23,6C287.7,46.58,283.94,46.18,281.6,42.27Z"/><path class="cls-12" d="M310.71,32.46c-1.91,1.51-4.2.42-6.26.88l-2.37-3.48,0-.11c2.34-2.64,9.49,1.45,8.39-6,1.9.93,4.49,1.2,4.1,4.31Z"/><path class="cls-12" d="M278.43,37.55c-3.28,4.24-6.68,3.05-10.12.22l6.59-2.87,1-.77Z"/><path class="cls-13" d="M310.71,32.46l3.88-4.39c.9,1.23,1.56,2.77,3.48,2.66l-.28,1.92C315.39,34.23,313,33.6,310.71,32.46Z"/><path class="cls-15" d="M300.33,44.61l17.91-3.46c.23,0,.54-.26.65-.17,8,6.17,12.92-.33,19-3.94,3.77-2.23,9.08,1.6,13.18-.94,5.92-3.67,12.88-3.31,19.07-5.66,2.55-1,3.93-.59,5.05,1.68-7.49,3.12-15.7,6.47-22.88,7.77-9.11,1.65-17.56,7.34-26,6.66s-16,2-24,3c-1.28.15-3,.85-3.57,1.84-3.29,6.11-6.79,8.63-13,2.88-2.36-2.19-5.68.38-8.46,1.35l-.19,0c-1.19-1.87-2.33-4.08.5-5.18,3-1.16,6-1.57,8.94,1.18,3.26,3.06,9.67,1.41,8.94-1.95C294.23,44.1,298.67,46.13,300.33,44.61Z"/><path class="cls-13" d="M346.37,64.31c5.69-3.67,12.42-3.47,18.65-5.14a106.28,106.28,0,0,0,12.44-4.58,2.89,2.89,0,0,1,3.72.74c.65,1,1.46,2,.69,3.36-1.85,1-3.76,1.83-4.47,4.06-.26.83-.82,2.2-1.72,1.44-6-5.12-11.05.65-16.51,1.38-2.15-.23-4.72-3.54-6.23.85L350.63,68a2.65,2.65,0,0,0-4-.68Z"/><path class="cls-13" d="M342,82.61l-5.49,2.05q-.06-2.61-.11-5.22c2.2-1.49,1.18-3.65,1.16-5.61,2.55-1.65,4.91-5.61,8-.71C345.76,76.79,345.63,80.36,342,82.61Z"/><path class="cls-9" d="M345.62,73.12c-3.13-4.9-5.48-.95-8,.7q-.42-.53-.86-1c.38-2,.39-4.25,1.23-6.08,1.76-3.85,4.21-6.59,8.42-2.39l.31,3c-.6,1.16-.13,2.15.49,3.12Z"/><path class="cls-12" d="M352.94,66.42c1.52-4.39,4.09-1.08,6.23-.85-1.43,1.78-.29,4-1,5.88l-.27,0A10.56,10.56,0,0,0,352.94,66.42Z"/><path class="cls-12" d="M347.17,70.4c-.61-1-1.09-2-.49-3.12a2.65,2.65,0,0,1,4,.68Z"/><path class="cls-12" d="M358.21,71.45l-.3.84q0-.45,0-.89Z"/><path class="cls-1" d="M411.94,60.24c.88-.47,1.57.07,2.13.79.25.32.52,1,.38,1.17-.85.89-1.45-.12-2.11-.44S411.21,61.07,411.94,60.24Z"/><path class="cls-7" d="M396,74.32c-.86.3-1.93,1.62-2.35-.33-.11-.5.34-1.55.72-1.66,1.8-.51,1,1.34,1.63,2Z"/><path class="cls-7" d="M392.59,68.73l.13.52-.72-.34Z"/><path class="cls-7" d="M396.57,65.33l-.12.86c-.06-.13-.19-.27-.16-.38a1.87,1.87,0,0,1,.28-.49Z"/><path class="cls-5" d="M149.61,66.55,137.82,54.42c2.32-1.33,4.24-3.73,7.26-3.24,2.42.39,3.42-.41,4.48-2.68s2.72-4.79,5.7-5.49a60.27,60.27,0,0,1,14.54,2.85c.79,2,3.65,3.65,1.05,6.07-5.06,4.7-7.13-3.5-11.38-2.78,4.32,5.08,4.32,5.08-2.2,9.08-.15.09-.44.22-.43.23C160,66.14,151.29,63.21,149.61,66.55Z"/><path class="cls-9" d="M129.48,62c-2.48-.22-2.86-3-4.83-3.89a5.13,5.13,0,0,1,2.89-6.85c3.79-1.57,6.9.73,9.54,3.43C134.85,57.4,130.42,57.87,129.48,62Z"/><path class="cls-13" d="M100.67,59.73c3-.91,6.51-1.08,6.94-5.31,3.64-.73,5.63,1.21,6.94,4.26L106,64.51l-3-1.61Z"/><path class="cls-16" d="M106,64.51l8.59-5.83,3.19.81,1.49,2.79c-4,0-6.5,2.88-9.43,4.92l-3.14-1.68A3.36,3.36,0,0,1,106,64.51Z"/><path class="cls-16" d="M300.33,44.61c-1.66,1.52-6.1-.51-4.89,5,.73,3.35-5.68,5-8.94,1.95-2.93-2.75-6-2.34-8.94-1.18-2.82,1.1-1.69,3.3-.5,5.18l-9.55,3.29L266,56.46a2.92,2.92,0,0,0-.53-3c3.56-1.31,8.67.05,7.77-7.31-.51-4.14,6.3-.71,8.4-3.86,2.34,3.91,6.1,4.31,9.59,2.75,2.71-1.21.88-4,.23-6,2.69.58,4.17,3.81,7.33,3.37Z"/><path class="cls-11" d="M320.15,36c3.28-1.82,7.2-2.37,10.07-5,1.09,2,4,4.44.38,6.18C327.23,38.79,323,41.63,320.15,36Z"/><path class="cls-5" d="M184,56.86a6.6,6.6,0,0,1-1,.46,11.22,11.22,0,0,0-5.21-4.72c-1.45-3.12-4.13-5.1-6.61-7.29,6.8-3.28,14.15-2.77,21.36-3.67,6.49-.81,12.45-2.22,18.24,1.78,7,5.19-.16,6.11-2.56,8.46l-1.61-2.13c-4.28-.49-6.21-5.39-10.53-6-.39,1.58.7,1.83,1.39,2.28,1.73,1.14,4.1,2.09,3.66,4.53-.52,3-3.29,1.75-5.19,2C191.57,53.11,187.11,53.14,184,56.86Z"/><path class="cls-12" d="M171.12,45.32c2.47,2.18,5.16,4.17,6.61,7.29-7.08.53-7.67,10.83-15.48,10.27,1.34,8.92-7.17,4.07-10,7.15l-1.67-2.47a5.62,5.62,0,0,1-.81-1l-.15,0c1.68-3.34,10.38-.41,7.22-8.09,0,0,.29-.15.43-.23,6.53-4,6.53-4,2.2-9.08,4.24-.72,6.32,7.49,11.38,2.78,2.6-2.42-.26-4.12-1.05-6.07Z"/><path class="cls-12" d="M208.16,51.89c2.4-2.35,9.53-3.27,2.56-8.46,3.33-.87,4.9,2.26,7.42,3.24,6.63,9.73,7,9.89,14.1,5.72l2.45,3.47,1,4.21c-5,6-8.56,0-12.68-1.42q-.43-.47-.82-1c-2-6.76-6.12-3.15-9.74-1.94Z"/><path class="cls-8" d="M100.67,59.73l2.25,3.17-11.56,3L86.63,64.1,86,62.77l6.59-4.57,5,1.77a2.39,2.39,0,0,0,3-.32Z"/><path class="cls-12" d="M86.63,64.1l4.73,1.84.83,1.4c-2,4.31-5.65,5.46-10.06,5C80.52,67.87,84,66.22,86.63,64.1Z"/><path class="cls-13" d="M360.41,20.38c1.29-.88,2.5-2.08,4.29-1.21C364,22.26,362.54,22.48,360.41,20.38Z"/><path class="cls-12" d="M234.44,40.56l1.63,2c.71,2.73,5.19,4.84,2.89,7.63-2,2.48-5.49.72-8.11-1-.36-.24-1.25.33-1.89.53l-5.13-7.43C229.94,47.39,232.39,44.52,234.44,40.56Z"/><path class="cls-11" d="M229,49.75c.64-.2,1.53-.76,1.89-.53,2.63,1.7,6.07,3.46,8.11,1,2.3-2.79-2.17-4.9-2.89-7.63a6.39,6.39,0,0,1,1-.38c2,2.73,5.49,4,6.88,7.32a3.06,3.06,0,0,1,.43,3.11c-2.92,2-6.32,2.53-9.67,3.22l-2.45-3.47Z"/><path class="cls-8" d="M221.63,44.4l.61-.08-.6,0Z"/><path class="cls-13" d="M100.69,59.65a2.39,2.39,0,0,1-3,.32C98.61,59.32,99.59,58.89,100.69,59.65Z"/><path class="cls-5" d="M274.91,34.9l-6.59,2.87h0c-1-.54-1.33-.25-1.06.83,3.19,5.72-1.11,7.75-4.93,10l-1.53-2.21c.25-3.61-2.17-5.26-4.9-6.68l.44-2.5c1.83-1.91,7-2.26,2.84-6.95-1-1.14,1.29-1.88,2.47-2.39l2.58-.61C267.93,29.57,272.8,30.3,274.91,34.9Zm-11.1.4.13.5.63-.35c-.13-.12-.23-.29-.39-.35S263.93,35.23,263.81,35.3Z"/><path class="cls-12" d="M256.29,37.21l-.44,2.5c-1.37,3.34-7.44,5.39-2.86,10.37v.07l-7.75,3.54q-.46-.51-.88-1.06a3.06,3.06,0,0,0-.43-3.11c3.67-2.14,6.73-4.31,1.41-8.11-1.06-.75-1.65-2.15-2.46-3.25l0,0c1.06.31,2.11.65,3.17.94,1.92.52,4.12,1.54,5.57-.47,1.59-2.19-1-3.55-1.66-5.3Z"/><path class="cls-12" d="M238.2,36.2a3.59,3.59,0,0,1-3.37-1.79c-.08-.13.84-.84,1.3-1.29Z"/><path class="cls-12" d="M242.23,37.24l-2-.51Z"/><path class="cls-5" d="M242.87,38.16c.81,1.1,1.41,2.5,2.46,3.25,5.32,3.79,2.26,6-1.41,8.11-1.4-3.29-4.89-4.59-6.89-7.32Z"/><path class="cls-12" d="M183.37,87.85c1.3-.85,2.48-2.08,4.27-1.23L190.49,93c-1.89,1.36-3.75,2.75-5.68,4.05-1.36.92-1.7,2-3.49-.73-3.34-5.17-5.78,1.57-8.94,2.22-1.87-1.59,3.18-2.43.57-3.81-1.81-1-4.59-1.83-6-.36-4.66,5-7.65,1.33-10.95-1.55,1-2.87,3.38-4.6,5.58-6.46A16.61,16.61,0,0,0,176,89.58c2.6,4,4.51,2.57,6.16-.79Z"/><path class="cls-12" d="M227.05,86.57a8.82,8.82,0,0,1,1.12-.67c.88,1,.76,3.5,2.19,3.09,9.54-2.71,19.54.55,29-2.46l1.09-.76c2.29,2.87,6.18.47,8.69,2.64A6.06,6.06,0,0,1,268.08,93l-1.61,1.24c-.61-1.52,1.1-4.41-2.85-3.9-6.91.9-15.21-2.11-18.31,8.6-2.85-7.79-4.18-8-9.83-2.57l-.25,0c-1.52-2.28-2.63-4.76-6.39-4-2.33.46-2.25-3.1-4.14-4Z"/><path class="cls-12" d="M197.43,88.37a8.64,8.64,0,0,1,6.21-.89c1.72,2.34,3.4,1.18,5.08-.06l3-.48c1.76,2.81,5.19,1.91,7.54,3.42-1.67,2.39-2.15,5.73-6.12,7.07,1.85-3.29,1.24-4.91-2.4-4.57a13.49,13.49,0,0,0-8.91,4.93c-1.84,2.08-3.7,3.1-6.52,2.82,2.13-3,6.36-3.43,7.63-7.5l-9-2.37Z"/><path class="cls-11" d="M140.48,92.2c4.69,2.12,9.69.77,14.52,1.25l-9.66,8.76.07-.06c-3.18-4.53-8.6-.68-12.3-3.3l3.58-4.4L140,92Z"/><path class="cls-13" d="M219.27,90.36c-2.34-1.51-5.78-.62-7.54-3.42-.26-2.39.37-4.47,3.17-3.77,4.07,1,8.53.74,12.14,3.4l-2.36,1.82A9,9,0,0,0,219.27,90.36Z"/><path class="cls-14" d="M266.47,94.28,268.08,93c1.8,2,6-.61,6.44,2.49a6.58,6.58,0,0,1-4.11,7.24c-.58-.9,2-3.35-1.55-2.86-2.68.37-5.32.6-7.64,2.16C261.54,98.51,265.12,97.14,266.47,94.28Z"/><path class="cls-13" d="M197.43,88.37,194,90.74,190.49,93l-2.85-6.42,1.52-2.74C192.36,84.56,195.5,85.35,197.43,88.37Z"/><path class="cls-12" d="M235.47,96.41l-.29.83q0-.44,0-.87Z"/><path class="cls-12" d="M336.42,79.44q.05,2.61.11,5.22l-.49,2c-1.38-2.57-3.15-3.19-5.63-1.32a4.52,4.52,0,0,1-5,.79c-7-2.67-8.93-1.25-10.73,6.64l-2.22,1.59c-4.1-4.85-8.18-2-12.26,0-4.61-6.72-8.71-2.24-12.88.58-1.51-.5-3-1.34-4.52-1.42-3.35-.16-5.45-.64-4.22-5,1.67-5.88-4.35-3.71-6.48-5.67q-.06-1.52-.11-3l1.95-1.7c2.94-.17,5.47.35,7.37,3,2.55,3.59,5.78,3.34,9.18,1.1,3.59-2.37,7.25-1.9,11.29-.89,4.72,1.18,10.7,3.27,14.37.36C322.91,76.39,329.77,80.51,336.42,79.44Z"/><path class="cls-5" d="M314.68,92.74c1.79-7.89,3.76-9.31,10.73-6.64a4.52,4.52,0,0,0,5-.79c2.48-1.87,4.25-1.25,5.63,1.32-2.51,4.3-5.29,8-11,4.52.16-.59.56-1.5-.48-1.35-1.25.18-1.73,1.24-1.58,2.52C320.3,93.9,317.48,93.18,314.68,92.74Z"/><path class="cls-12" d="M323,92.31c-.16-1.27.33-2.34,1.58-2.52,1-.15.64.76.48,1.35Z"/><path class="cls-10" d="M48.36,97.52A21.55,21.55,0,0,1,61.93,86.44a2.67,2.67,0,0,1,3.39,1.32C59.6,90.9,55,95.92,48.36,97.52Z"/><path class="cls-12" d="M88.6,91.74c3.88,1.17,7.62,3.06,11.88,2.2q.38.54.78,1.06l-3.63,2.75c-1.31.86-2.59,1.8-4.31,1.23-1.59-7.13-6.6-1.23-9.9-3.31Z"/><path class="cls-8" d="M287.32,94.94c4.17-2.82,8.27-7.3,12.88-.58a8,8,0,0,1-4.22,6c.74-2.57-.16-2.62-2.52-2.23-2.57.43-5.45-1.05-7.68,1.41C284.74,97.52,287.56,96.73,287.32,94.94Z"/><path class="cls-13" d="M269.15,88.42c-2.5-2.17-6.4.23-8.69-2.64,3.19-5.74,6.7-2,10.14-.35Z"/><path class="cls-8" d="M283.55,101.89l-4.44,3.2C279.61,102.66,281.43,102.07,283.55,101.89Z"/><path class="cls-13" d="M101.26,95q-.41-.52-.78-1.06l2.32-1.76,4.61-3.52a8.83,8.83,0,0,1,3.82-3.8C113,87.21,116,85.27,118,87c-3.93,6,3.57,4.12,4.62,6.68L122,96.32l-5.38,3.58c-3-.62-5.9-.85-8.76.45a7.33,7.33,0,0,0-.33-.77c1.87-1.88,5.26-3.94,3.34-6.56-2.06-2.83-5.37-1.08-7.88.83C102.43,94.27,101.84,94.61,101.26,95Z"/><path class="cls-12" d="M133.12,98.86c3.69,2.61,9.12-1.23,12.3,3.3-3.51,2.22-6.72,5.18-11.38,4.47-.57-1.78-2-2.14-3.62-2.21-3.12-.13-2.69-1.49-1-3.19Z"/><path class="cls-5" d="M133.12,98.86l-3.72,2.37L122,96.32l.58-2.67,2.2-1.45,1.37-.93a4.41,4.41,0,0,1,1.14-.6c2.09,3.88,7.31,0,9.42,3.79Z"/><path class="cls-5" d="M101.26,95c.57-.38,1.17-.72,1.72-1.14,2.51-1.91,5.82-3.66,7.88-.83,1.91,2.62-1.48,4.68-3.34,6.56l-9.88-1.84Z"/><path class="cls-16" d="M336.42,79.44c-6.65,1.08-13.51-3-20.27,2.31-3.67,2.91-9.65.82-14.37-.36-4-1-7.7-1.48-11.29.89-3.4,2.25-6.63,2.49-9.18-1.1-1.9-2.67-4.43-3.19-7.37-3,1.09-4.75,4.9-2.58,7.44-2.57,6.74,0,13.45,3.21,20.16,1.3,11.55-3.28,23.77-.11,35.18-4.11.3.34.58.69.86,1C337.6,75.78,338.62,77.94,336.42,79.44Z"/><path class="cls-13" d="M259.37,86.53c-9.47,3-19.47-.25-29,2.46-1.43.41-1.31-2.12-2.19-3.09,8.4-5.09,17.42-3.62,26.48-2.85C257.43,83.28,258,85.12,259.37,86.53Z"/><path class="cls-13" d="M208.71,87.42c-1.68,1.24-3.36,2.4-5.08.06A4.3,4.3,0,0,1,208.71,87.42Z"/><path class="cls-5" d="M149.76,66.52a5.62,5.62,0,0,0,.81,1,10.4,10.4,0,0,1-1-.47A3.58,3.58,0,0,1,149.76,66.52Z"/><path class="cls-9" d="M222.23,57.67q.39.51.82,1l2.39,3.58c-6.47,1.35-12.89,3.1-19.42,3.89-3.66.44-5.62,4-9.25,3.88l-4.34-3.87c3.6,0,3.75-7.31,8.84-4.22a2.55,2.55,0,0,0,3.91.63l2.31-1.5c1.24,1.25,2.49,2.52,3.15-.43l1.16-.87L214,58.18C216.88,59.66,219.63,59.82,222.23,57.67Z"/><path class="cls-13" d="M137.79,88.58a5.09,5.09,0,0,1,4.13.82l-1.44,2.8L140,92Z"/><path class="cls-15" d="M109.79,67.21c2.94-2,5.41-5,9.43-4.92l5.7,7.85c-4.14-4.24-7.75-2-11.3.93C112,70.1,110.49,69.07,109.79,67.21Z"/><path class="cls-13" d="M201.27,61.91c-5.1-3.09-5.24,4.19-8.84,4.22q-.45-.48-.86-1l-2.28-3.62c3.2-3.38,6.51-5.45,11.78-4.52,4.89.86,5.92-3.06,5.47-7.23l1.61,2.13,4.34,3.84,0,.12a2.46,2.46,0,0,0-.66,3.89l-1.16.87a2.7,2.7,0,0,0-3.15.43l-2.31,1.5A2.52,2.52,0,0,0,201.27,61.91Z"/><path class="cls-12" d="M206.54,49.76c.45,4.17-.58,8.09-5.47,7.23-5.27-.93-8.58,1.14-11.78,4.52L184,56.86c3.15-3.72,7.61-3.75,11.92-4.29,1.89-.24,4.67,1,5.19-2,.43-2.45-1.93-3.4-3.66-4.53-.69-.45-1.78-.7-1.39-2.28C200.34,44.36,202.26,49.26,206.54,49.76Z"/><path class="cls-5" d="M92.18,67.34l-.83-1.4,11.56-3,3,1.61a3.38,3.38,0,0,0,.7,1c4.29,7.91-4.79,5-6.53,8.08Z"/><path class="cls-12" d="M137.79,88.58,140,92l-3.33,2.49c-2.11-3.83-7.33.09-9.42-3.79l5.09-5C133.57,87.77,136.07,87.46,137.79,88.58Z"/><path class="cls-13" d="M126.14,91.26l-1.37.93C124.77,91.22,125.22,90.9,126.14,91.26Z"/><path class="cls-15" d="M113.66,71q0,.92-.07,1.84Q113.62,71.94,113.66,71Z"/><path class="cls-13" d="M182.15,88.79c-1.65,3.36-3.56,4.8-6.16.79l3.42-2.36,2,.39Q181.81,88.18,182.15,88.79Z"/><path class="cls-9" d="M107.41,88.66l-4.61,3.52c-1.61-2-3.84-2.41-6.19-2.18-5.8.56-2.44-2.32-1.64-4.25C99.18,86.49,103.72,85.73,107.41,88.66Z"/><path class="cls-16" d="M182.15,88.79q-.33-.61-.73-1.18l2,.25Z"/><path class="cls-16" d="M257.51,59.1c-2.51,1.54-4.82,3.51-8,3.58q-.33-.6-.71-1.18a3.07,3.07,0,0,1-.46-3.13l7.75-3.64.1,0,1.61,2.34Z"/><path class="cls-9" d="M257.81,57.09l-1.61-2.34a10.63,10.63,0,0,1,6.52-2.87,2.92,2.92,0,0,0,2.72,1.56,2.92,2.92,0,0,1,.53,3Z"/><path class="cls-9" d="M248.34,58.38a3.07,3.07,0,0,0,.46,3.13c-3.84.93-8.36-.75-11.49,3l-1.59-4.39-1-4.22c3.35-.69,6.75-1.23,9.67-3.22q.42.55.88,1.06Z"/><path class="cls-13" d="M302.07,29.87l2.37,3.48a2.9,2.9,0,0,1-3.08.4A2.52,2.52,0,0,1,302.07,29.87Z"/><path class="cls-16" d="M262.72,51.88a10.63,10.63,0,0,0-6.52,2.87l-.1,0L253,50.16v-.07c2.15-2.16,5.23-2.35,7.77-3.69l1.53,2.21Z"/><path class="cls-12" d="M267.23,38.6c-.27-1.08.08-1.36,1.06-.83Z"/><path class="cls-13" d="M222.23,57.67c-2.6,2.15-5.35,2-8.18.51l-1.58-2.33,0-.12C216.11,54.52,220.2,50.91,222.23,57.67Z"/><path class="cls-13" d="M260.76,46.39c-2.54,1.34-5.62,1.54-7.77,3.69-4.58-5,1.49-7,2.86-10.37C258.59,41.14,261,42.78,260.76,46.39Z"/><path class="cls-12" d="M263.81,35.3c.13-.07.28-.22.38-.19s.26.22.39.35l-.63.35Z"/><path class="cls-13" d="M253,50.16l3.11,4.57-7.75,3.64-3.11-4.68Z"/><path class="cls-16" d="M201.27,61.91a2.52,2.52,0,0,1,3.91.63A2.55,2.55,0,0,1,201.27,61.91Z"/><path class="cls-16" d="M212.47,55.85l1.58,2.33-2.24,1.55A2.46,2.46,0,0,1,212.47,55.85Z"/><path class="cls-16" d="M207.49,61a2.7,2.7,0,0,1,3.15-.43C210,63.56,208.74,62.29,207.49,61Z"/></g></g></svg>